# xmcd
#
# Track frame offsets:
#	150
#	19147
#	36382
#	57610
#	77907
#
# Disc length: 1561 seconds
# Revision: 0
# Processed by: cddbd v1.5.2PL0 Copyright (c) Steve Scherf et al.
# Submitted via: dBpowerAMP V12.0
#
DISCID=40061705
DTITLE=Jamaica - Tell Me Where It Hurts
DYEAR=1998
DGENRE=R&B
TTITLE0=Tell Me Where It Hurts [Album Edit]
TTITLE1=Tell Me Where It Hurts [T-Empo Late Night Edit]
TTITLE2=Tell Me Where It Hurts [Linslee Mix]
TTITLE3=Tell Me Where It Hurts [Soul Inside Urban Radio Mix]
TTITLE4=Tell Me Where It Hurts [T-Empo Late Night Club Mix]
EXTD=
EXTT0=
EXTT1=
EXTT2=
EXTT3=
EXTT4=
PLAYORDER=
